<mxfile host="65bd71144e">
    <diagram id="dPa3eCRp1KqCvTpyh3m8" name="Page-1">
        <mxGraphModel dx="702" dy="438" grid="1" gridSize="10" guides="1" tooltips="1" connect="1" arrows="1" fold="1" page="1" pageScale="1" pageWidth="827" pageHeight="1169" background="#FFFFFF" math="0" shadow="0">
            <root>
                <mxCell id="0"/>
                <mxCell id="1" parent="0"/>
                <mxCell id="23" value="&lt;span style=&quot;font-size: 12px&quot;&gt;Når siden er loadet&lt;br&gt;(load)&lt;br&gt;&lt;/span&gt;" style="edgeStyle=orthogonalEdgeStyle;rounded=0;orthogonalLoop=1;jettySize=auto;html=1;exitX=0.5;exitY=1;exitDx=0;exitDy=0;entryX=0.5;entryY=0;entryDx=0;entryDy=0;" parent="1" source="2" target="63" edge="1">
                    <mxGeometry relative="1" as="geometry">
                        <mxPoint x="380" y="120" as="targetPoint"/>
                    </mxGeometry>
                </mxCell>
                <mxCell id="2" value="" style="ellipse;fillColor=#000000;strokeColor=none;" parent="1" vertex="1">
                    <mxGeometry x="520" y="40" width="30" height="30" as="geometry"/>
                </mxCell>
                <mxCell id="25" value="startGame" style="swimlane;fontStyle=4;align=center;verticalAlign=top;childLayout=stackLayout;horizontal=1;startSize=30;horizontalStack=0;resizeParent=1;resizeParentMax=0;resizeLast=0;collapsible=0;marginBottom=0;html=1;rounded=1;absoluteArcSize=1;arcSize=25;" parent="1" vertex="1">
                    <mxGeometry x="390" y="280" width="290" height="170" as="geometry"/>
                </mxCell>
                <mxCell id="26" value="Skjul andre skærme" style="fillColor=none;strokeColor=none;align=left;verticalAlign=middle;spacingLeft=5;fontSize=11;" parent="25" vertex="1">
                    <mxGeometry y="30" width="290" height="20" as="geometry"/>
                </mxCell>
                <mxCell id="46" value="Nulstil point og liv" style="fillColor=none;strokeColor=none;align=left;verticalAlign=middle;spacingLeft=5;fontSize=11;" parent="25" vertex="1">
                    <mxGeometry y="50" width="290" height="20" as="geometry"/>
                </mxCell>
                <mxCell id="47" value="Skriv point og liv ud" style="fillColor=none;strokeColor=none;align=left;verticalAlign=middle;spacingLeft=5;fontSize=11;" parent="25" vertex="1">
                    <mxGeometry y="70" width="290" height="20" as="geometry"/>
                </mxCell>
                <mxCell id="49" value="Start timer-animation" style="fillColor=none;strokeColor=none;align=left;verticalAlign=middle;spacingLeft=5;fontSize=11;" parent="25" vertex="1">
                    <mxGeometry y="90" width="290" height="20" as="geometry"/>
                </mxCell>
                <mxCell id="50" value="Giv random position og random delay til elementer" style="fillColor=none;strokeColor=none;align=left;verticalAlign=middle;spacingLeft=5;fontSize=11;" parent="25" vertex="1">
                    <mxGeometry y="110" width="290" height="20" as="geometry"/>
                </mxCell>
                <mxCell id="52" value="Start fald -animationer på carljohan svampe" style="fillColor=none;strokeColor=none;align=left;verticalAlign=middle;spacingLeft=5;fontSize=11;" parent="25" vertex="1">
                    <mxGeometry y="130" width="290" height="20" as="geometry"/>
                </mxCell>
                <mxCell id="147" value="Start fald -animationer på fluesvampe" style="fillColor=none;strokeColor=none;align=left;verticalAlign=middle;spacingLeft=5;fontSize=11;" parent="25" vertex="1">
                    <mxGeometry y="150" width="290" height="20" as="geometry"/>
                </mxCell>
                <mxCell id="53" value="&lt;span style=&quot;font-size: 12px&quot;&gt;klik på play-knap&lt;br&gt;(click)&lt;br&gt;&lt;/span&gt;" style="edgeStyle=orthogonalEdgeStyle;rounded=0;orthogonalLoop=1;jettySize=auto;html=1;exitX=0.5;exitY=1;exitDx=0;exitDy=0;entryX=0.5;entryY=0;entryDx=0;entryDy=0;" parent="1" source="65" target="25" edge="1">
                    <mxGeometry relative="1" as="geometry">
                        <mxPoint x="380" y="197" as="sourcePoint"/>
                    </mxGeometry>
                </mxCell>
                <mxCell id="55" value="clickCarlJohan" style="swimlane;fontStyle=4;align=center;verticalAlign=top;childLayout=stackLayout;horizontal=1;startSize=30;horizontalStack=0;resizeParent=1;resizeParentMax=0;resizeLast=0;collapsible=0;marginBottom=0;html=1;rounded=1;absoluteArcSize=1;arcSize=25;strokeColor=#FF0000;strokeWidth=2;" parent="1" vertex="1">
                    <mxGeometry x="132" y="480" width="188" height="130" as="geometry"/>
                </mxCell>
                <mxCell id="56" value="Tæl op på point" style="fillColor=none;strokeColor=none;align=left;verticalAlign=middle;spacingLeft=5;fontSize=11;" parent="55" vertex="1">
                    <mxGeometry y="30" width="188" height="20" as="geometry"/>
                </mxCell>
                <mxCell id="57" value="Opdater point på siden" style="fillColor=none;strokeColor=none;align=left;verticalAlign=middle;spacingLeft=5;fontSize=11;" parent="55" vertex="1">
                    <mxGeometry y="50" width="188" height="20" as="geometry"/>
                </mxCell>
                <mxCell id="117" value="Afspil lyd (carljohan-lyd)" style="fillColor=none;strokeColor=none;align=left;verticalAlign=middle;spacingLeft=5;fontSize=11;" parent="55" vertex="1">
                    <mxGeometry y="70" width="188" height="20" as="geometry"/>
                </mxCell>
                <mxCell id="144" value="Stop falde-animation på container" style="fillColor=none;strokeColor=none;align=left;verticalAlign=middle;spacingLeft=5;fontSize=11;" parent="55" vertex="1">
                    <mxGeometry y="90" width="188" height="20" as="geometry"/>
                </mxCell>
                <mxCell id="145" value="Start forsvind-animation på sprite" style="fillColor=none;strokeColor=none;align=left;verticalAlign=middle;spacingLeft=5;fontSize=11;" parent="55" vertex="1">
                    <mxGeometry y="110" width="188" height="20" as="geometry"/>
                </mxCell>
                <mxCell id="63" value="start" style="swimlane;fontStyle=4;align=center;verticalAlign=top;childLayout=stackLayout;horizontal=1;startSize=29;horizontalStack=0;resizeParent=1;resizeParentMax=0;resizeLast=0;collapsible=0;marginBottom=0;html=1;rounded=1;absoluteArcSize=1;arcSize=25;" parent="1" vertex="1">
                    <mxGeometry x="465" y="141" width="140" height="69" as="geometry"/>
                </mxCell>
                <mxCell id="64" value="Skjul andre skærme" style="fillColor=none;strokeColor=none;align=left;verticalAlign=middle;spacingLeft=5;fontSize=11;" parent="63" vertex="1">
                    <mxGeometry y="29" width="140" height="20" as="geometry"/>
                </mxCell>
                <mxCell id="65" value="Vis start skærm" style="fillColor=none;strokeColor=none;align=left;verticalAlign=middle;spacingLeft=5;fontSize=11;" parent="63" vertex="1">
                    <mxGeometry y="49" width="140" height="20" as="geometry"/>
                </mxCell>
                <mxCell id="68" value="resetCarlJohan" style="swimlane;fontStyle=4;align=center;verticalAlign=top;childLayout=stackLayout;horizontal=1;startSize=29;horizontalStack=0;resizeParent=1;resizeParentMax=0;resizeLast=0;collapsible=0;marginBottom=0;html=1;rounded=1;absoluteArcSize=1;arcSize=25;strokeColor=#FF0000;strokeWidth=2;" parent="1" vertex="1">
                    <mxGeometry x="131" y="699" width="190" height="129" as="geometry"/>
                </mxCell>
                <mxCell id="70" value="Fjern alle klasser fra container" style="fillColor=none;strokeColor=none;align=left;verticalAlign=middle;spacingLeft=5;fontSize=11;" parent="68" vertex="1">
                    <mxGeometry y="29" width="190" height="20" as="geometry"/>
                </mxCell>
                <mxCell id="71" value="Fjern alle kasser fra sprite" style="fillColor=none;strokeColor=none;align=left;verticalAlign=middle;spacingLeft=5;fontSize=11;" parent="68" vertex="1">
                    <mxGeometry y="49" width="190" height="20" as="geometry"/>
                </mxCell>
                <mxCell id="154" value="Giv ny random position" style="fillColor=none;strokeColor=none;align=left;verticalAlign=middle;spacingLeft=5;fontSize=11;" parent="68" vertex="1">
                    <mxGeometry y="69" width="190" height="20" as="geometry"/>
                </mxCell>
                <mxCell id="155" value="Force reflow på container" style="fillColor=none;strokeColor=none;align=left;verticalAlign=middle;spacingLeft=5;fontSize=11;" parent="68" vertex="1">
                    <mxGeometry y="89" width="190" height="20" as="geometry"/>
                </mxCell>
                <mxCell id="156" value="Sæt klassen fald på container igen" style="fillColor=none;strokeColor=none;align=left;verticalAlign=middle;spacingLeft=5;fontSize=11;" parent="68" vertex="1">
                    <mxGeometry y="109" width="190" height="20" as="geometry"/>
                </mxCell>
                <mxCell id="72" value="" style="edgeStyle=orthogonalEdgeStyle;rounded=0;orthogonalLoop=1;jettySize=auto;html=1;exitX=0.5;exitY=1;exitDx=0;exitDy=0;entryX=0.5;entryY=0;entryDx=0;entryDy=0;strokeColor=#FF0000;strokeWidth=2;" parent="1" source="145" target="68" edge="1">
                    <mxGeometry x="-0.0123" y="-45" relative="1" as="geometry">
                        <mxPoint x="222" y="610" as="sourcePoint"/>
                        <mxPoint x="222" y="691" as="targetPoint"/>
                        <mxPoint as="offset"/>
                    </mxGeometry>
                </mxCell>
                <mxCell id="146" value="forsvind-animation&lt;br&gt;på sprite færdig&lt;br&gt;(animationend)" style="edgeLabel;html=1;align=center;verticalAlign=middle;resizable=0;points=[];fontSize=11;" parent="72" vertex="1" connectable="0">
                    <mxGeometry x="-0.2654" relative="1" as="geometry">
                        <mxPoint y="7" as="offset"/>
                    </mxGeometry>
                </mxCell>
                <mxCell id="73" value="klik på carljohan&lt;br&gt;(mousedown)" style="edgeStyle=orthogonalEdgeStyle;rounded=0;orthogonalLoop=1;jettySize=auto;html=1;exitX=0;exitY=0;exitDx=0;exitDy=0;entryX=0.5;entryY=0;entryDx=0;entryDy=0;" parent="1" source="49" target="55" edge="1">
                    <mxGeometry x="0.4754" relative="1" as="geometry">
                        <mxPoint as="offset"/>
                        <mxPoint x="395" y="360" as="sourcePoint"/>
                        <mxPoint x="200" y="470" as="targetPoint"/>
                        <Array as="points">
                            <mxPoint x="225" y="370"/>
                        </Array>
                    </mxGeometry>
                </mxCell>
                <mxCell id="75" value="clickFluesvamp" style="swimlane;fontStyle=4;align=center;verticalAlign=top;childLayout=stackLayout;horizontal=1;startSize=30;horizontalStack=0;resizeParent=1;resizeParentMax=0;resizeLast=0;collapsible=0;marginBottom=0;html=1;rounded=1;absoluteArcSize=1;arcSize=25;" parent="1" vertex="1">
                    <mxGeometry x="760" y="480" width="190" height="130" as="geometry"/>
                </mxCell>
                <mxCell id="76" value="tæl ned på liv" style="fillColor=none;strokeColor=none;align=left;verticalAlign=middle;spacingLeft=5;fontSize=11;" parent="75" vertex="1">
                    <mxGeometry y="30" width="190" height="20" as="geometry"/>
                </mxCell>
                <mxCell id="77" value="Opdater antal liv på siden" style="fillColor=none;strokeColor=none;align=left;verticalAlign=middle;spacingLeft=5;fontSize=11;" parent="75" vertex="1">
                    <mxGeometry y="50" width="190" height="20" as="geometry"/>
                </mxCell>
                <mxCell id="118" value="Afspil lyd (fluesvamp-lyd)" style="fillColor=none;strokeColor=none;align=left;verticalAlign=middle;spacingLeft=5;fontSize=11;" parent="75" vertex="1">
                    <mxGeometry y="70" width="190" height="20" as="geometry"/>
                </mxCell>
                <mxCell id="125" value="Stoppe fald-animation på container" style="fillColor=none;strokeColor=none;align=left;verticalAlign=middle;spacingLeft=5;fontSize=11;" parent="75" vertex="1">
                    <mxGeometry y="90" width="190" height="20" as="geometry"/>
                </mxCell>
                <mxCell id="126" value="Start forsvind-animation på sprite" style="fillColor=none;strokeColor=none;align=left;verticalAlign=middle;spacingLeft=5;fontSize=11;" parent="75" vertex="1">
                    <mxGeometry y="110" width="190" height="20" as="geometry"/>
                </mxCell>
                <mxCell id="79" value="resetFluesvamp" style="swimlane;fontStyle=4;align=center;verticalAlign=top;childLayout=stackLayout;horizontal=1;startSize=29;horizontalStack=0;resizeParent=1;resizeParentMax=0;resizeLast=0;collapsible=0;marginBottom=0;html=1;rounded=1;absoluteArcSize=1;arcSize=25;" parent="1" vertex="1">
                    <mxGeometry x="760" y="699" width="190" height="132" as="geometry"/>
                </mxCell>
                <mxCell id="82" value="Fjern alle klasser fra container" style="fillColor=none;strokeColor=none;align=left;verticalAlign=middle;spacingLeft=5;fontSize=11;" parent="79" vertex="1">
                    <mxGeometry y="29" width="190" height="20" as="geometry"/>
                </mxCell>
                <mxCell id="133" value="Fjern alle klasser fra sprite" style="fillColor=none;strokeColor=none;align=left;verticalAlign=middle;spacingLeft=5;fontSize=11;" parent="79" vertex="1">
                    <mxGeometry y="49" width="190" height="20" as="geometry"/>
                </mxCell>
                <mxCell id="157" value="Giv ny random position" style="fillColor=none;strokeColor=none;align=left;verticalAlign=middle;spacingLeft=5;fontSize=11;" parent="79" vertex="1">
                    <mxGeometry y="69" width="190" height="21" as="geometry"/>
                </mxCell>
                <mxCell id="158" value="Force reflow på container" style="fillColor=none;strokeColor=none;align=left;verticalAlign=middle;spacingLeft=5;fontSize=11;" parent="79" vertex="1">
                    <mxGeometry y="90" width="190" height="21" as="geometry"/>
                </mxCell>
                <mxCell id="163" value="Sæt klassen fald på container igen" style="fillColor=none;strokeColor=none;align=left;verticalAlign=middle;spacingLeft=5;fontSize=11;" parent="79" vertex="1">
                    <mxGeometry y="111" width="190" height="21" as="geometry"/>
                </mxCell>
                <mxCell id="83" value="forsvind-animation&lt;br&gt;på sprite færdig&lt;br&gt;(animationend)" style="edgeStyle=orthogonalEdgeStyle;rounded=0;orthogonalLoop=1;jettySize=auto;html=1;entryX=0.5;entryY=0;entryDx=0;entryDy=0;exitX=0.5;exitY=1;exitDx=0;exitDy=0;" parent="1" source="126" target="79" edge="1">
                    <mxGeometry x="-0.1011" relative="1" as="geometry">
                        <mxPoint x="855" y="630" as="sourcePoint"/>
                        <mxPoint as="offset"/>
                    </mxGeometry>
                </mxCell>
                <mxCell id="87" value="&lt;font style=&quot;font-size: 11px;&quot;&gt;timer-animation færdig&lt;br&gt;(animationend)&lt;/font&gt;" style="edgeStyle=orthogonalEdgeStyle;rounded=0;orthogonalLoop=1;jettySize=auto;html=1;exitX=1;exitY=1;exitDx=0;exitDy=0;entryX=0.5;entryY=0;entryDx=0;entryDy=0;" parent="1" source="47" target="88" edge="1">
                    <mxGeometry x="-0.6654" relative="1" as="geometry">
                        <mxPoint x="860.0000000000002" y="160" as="sourcePoint"/>
                        <mxPoint x="1480" y="590" as="targetPoint"/>
                        <mxPoint as="offset"/>
                        <Array as="points">
                            <mxPoint x="1285" y="370"/>
                        </Array>
                    </mxGeometry>
                </mxCell>
                <mxCell id="88" value="endGame" style="swimlane;fontStyle=4;align=center;verticalAlign=top;childLayout=stackLayout;horizontal=1;startSize=30;horizontalStack=0;resizeParent=1;resizeParentMax=0;resizeLast=0;collapsible=0;marginBottom=0;html=1;rounded=1;absoluteArcSize=1;arcSize=25;" parent="1" vertex="1">
                    <mxGeometry x="1200" y="440" width="170" height="70" as="geometry"/>
                </mxCell>
                <mxCell id="89" value="Fjern alle animationer" style="fillColor=none;strokeColor=none;align=left;verticalAlign=middle;spacingLeft=5;fontSize=11;" parent="88" vertex="1">
                    <mxGeometry y="30" width="170" height="20" as="geometry"/>
                </mxCell>
                <mxCell id="90" value="Fjern alle eventListernere" style="fillColor=none;strokeColor=none;align=left;verticalAlign=middle;spacingLeft=5;fontSize=11;" parent="88" vertex="1">
                    <mxGeometry y="50" width="170" height="20" as="geometry"/>
                </mxCell>
                <mxCell id="92" value="levelComplete" style="swimlane;fontStyle=4;align=center;verticalAlign=top;childLayout=stackLayout;horizontal=1;startSize=30;horizontalStack=0;resizeParent=1;resizeParentMax=0;resizeLast=0;collapsible=0;marginBottom=0;html=1;rounded=1;absoluteArcSize=1;arcSize=25;fontSize=12;" parent="1" vertex="1">
                    <mxGeometry x="1320" y="620" width="160" height="70" as="geometry"/>
                </mxCell>
                <mxCell id="93" value="Skjul andre skærme" style="fillColor=none;strokeColor=none;align=left;verticalAlign=middle;spacingLeft=5;fontSize=11;" parent="92" vertex="1">
                    <mxGeometry y="30" width="160" height="20" as="geometry"/>
                </mxCell>
                <mxCell id="137" value="Vis levelcomplete skærm" style="fillColor=none;strokeColor=none;align=left;verticalAlign=middle;spacingLeft=5;fontSize=11;" parent="92" vertex="1">
                    <mxGeometry y="50" width="160" height="20" as="geometry"/>
                </mxCell>
                <mxCell id="172" style="edgeStyle=orthogonalEdgeStyle;html=1;exitX=0.5;exitY=0;exitDx=0;exitDy=0;entryX=0.5;entryY=1;entryDx=0;entryDy=0;labelBackgroundColor=#FFFFFF;startArrow=block;startFill=1;endArrow=none;endFill=0;rounded=0;" parent="1" source="95" target="90" edge="1">
                    <mxGeometry relative="1" as="geometry">
                        <Array as="points">
                            <mxPoint x="1200" y="560"/>
                            <mxPoint x="1285" y="560"/>
                        </Array>
                    </mxGeometry>
                </mxCell>
                <mxCell id="95" value="gameOver" style="swimlane;fontStyle=4;align=center;verticalAlign=top;childLayout=stackLayout;horizontal=1;startSize=30;horizontalStack=0;resizeParent=1;resizeParentMax=0;resizeLast=0;collapsible=0;marginBottom=0;html=1;rounded=1;absoluteArcSize=1;arcSize=25;fontSize=12;" parent="1" vertex="1">
                    <mxGeometry x="1120" y="620" width="160" height="70" as="geometry"/>
                </mxCell>
                <mxCell id="96" value="Skjul andre skærme" style="fillColor=none;strokeColor=none;align=left;verticalAlign=middle;spacingLeft=5;fontSize=11;" parent="95" vertex="1">
                    <mxGeometry y="30" width="160" height="20" as="geometry"/>
                </mxCell>
                <mxCell id="134" value="Vis gameover skærm" style="fillColor=none;strokeColor=none;align=left;verticalAlign=middle;spacingLeft=5;fontSize=11;" parent="95" vertex="1">
                    <mxGeometry y="50" width="160" height="20" as="geometry"/>
                </mxCell>
                <mxCell id="102" value="" style="ellipse;html=1;shape=endState;fillColor=#000000;strokeColor=#000000;" parent="1" vertex="1">
                    <mxGeometry x="1345" y="748.5" width="30" height="30" as="geometry"/>
                </mxCell>
                <mxCell id="110" value="[ liv &amp;lt;= 0 ]" style="edgeStyle=orthogonalEdgeStyle;rounded=0;orthogonalLoop=1;jettySize=auto;html=1;entryX=0;entryY=0;entryDx=0;entryDy=0;exitX=1;exitY=0.5;exitDx=0;exitDy=0;" parent="1" source="76" target="89" edge="1">
                    <mxGeometry relative="1" as="geometry">
                        <Array as="points">
                            <mxPoint x="1080" y="520"/>
                            <mxPoint x="1080" y="470"/>
                        </Array>
                        <mxPoint x="950" y="520" as="sourcePoint"/>
                    </mxGeometry>
                </mxCell>
                <mxCell id="127" style="edgeStyle=orthogonalEdgeStyle;html=1;fontSize=11;rounded=0;strokeColor=#000000;" parent="1" edge="1">
                    <mxGeometry relative="1" as="geometry">
                        <Array as="points">
                            <mxPoint x="510" y="450"/>
                            <mxPoint x="510" y="735"/>
                        </Array>
                        <mxPoint x="510" y="450" as="sourcePoint"/>
                        <mxPoint x="320" y="735" as="targetPoint"/>
                    </mxGeometry>
                </mxCell>
                <mxCell id="128" value="fald-animation på carljohan&lt;br&gt;har kørt 1 gang&lt;br&gt;(animationiteration)" style="edgeLabel;html=1;align=center;verticalAlign=middle;resizable=0;points=[];fontSize=11;fontColor=#000000;" parent="127" vertex="1" connectable="0">
                    <mxGeometry x="0.6026" relative="1" as="geometry">
                        <mxPoint x="12" y="1" as="offset"/>
                    </mxGeometry>
                </mxCell>
                <mxCell id="130" style="edgeStyle=orthogonalEdgeStyle;html=1;entryX=0;entryY=0.75;entryDx=0;entryDy=0;fontSize=11;rounded=0;strokeColor=#000000;" parent="1" edge="1">
                    <mxGeometry relative="1" as="geometry">
                        <Array as="points">
                            <mxPoint x="570" y="450"/>
                            <mxPoint x="570" y="735"/>
                        </Array>
                        <mxPoint x="570" y="450" as="sourcePoint"/>
                        <mxPoint x="760" y="735" as="targetPoint"/>
                    </mxGeometry>
                </mxCell>
                <mxCell id="131" value="&lt;span style=&quot;&quot;&gt;hoppe-animation på fluesvamp&lt;/span&gt;&lt;br style=&quot;border-color: var(--border-color);&quot;&gt;&lt;span style=&quot;&quot;&gt;har kørt 1 gang&lt;/span&gt;&lt;br style=&quot;border-color: var(--border-color);&quot;&gt;&lt;span style=&quot;&quot;&gt;(animationiteration)&lt;/span&gt;" style="edgeLabel;html=1;align=center;verticalAlign=middle;resizable=0;points=[];fontSize=11;fontColor=#000000;" parent="130" vertex="1" connectable="0">
                    <mxGeometry x="0.4093" y="-1" relative="1" as="geometry">
                        <mxPoint x="44" as="offset"/>
                    </mxGeometry>
                </mxCell>
                <mxCell id="135" style="edgeStyle=orthogonalEdgeStyle;html=1;fontSize=11;rounded=0;exitX=0.75;exitY=1;exitDx=0;exitDy=0;endArrow=block;endFill=1;entryX=1;entryY=0.5;entryDx=0;entryDy=0;strokeColor=#000000;" parent="1" source="134" target="26" edge="1">
                    <mxGeometry relative="1" as="geometry">
                        <Array as="points">
                            <mxPoint x="1240" y="800"/>
                            <mxPoint x="1600" y="800"/>
                            <mxPoint x="1600" y="320"/>
                        </Array>
                        <mxPoint x="1185" y="639" as="sourcePoint"/>
                        <mxPoint x="740" y="270" as="targetPoint"/>
                    </mxGeometry>
                </mxCell>
                <mxCell id="136" value="Klik på spiligen_1&lt;br&gt;(click)" style="edgeLabel;html=1;align=center;verticalAlign=middle;resizable=0;points=[];fontSize=11;strokeColor=#FF0000;fontColor=#000000;" parent="135" vertex="1" connectable="0">
                    <mxGeometry x="-0.9401" relative="1" as="geometry">
                        <mxPoint x="1" y="-25" as="offset"/>
                    </mxGeometry>
                </mxCell>
                <mxCell id="142" style="edgeStyle=orthogonalEdgeStyle;rounded=0;html=1;exitX=1;exitY=0.5;exitDx=0;exitDy=0;entryX=0.5;entryY=0;entryDx=0;entryDy=0;fontSize=11;" parent="1" source="50" target="75" edge="1">
                    <mxGeometry relative="1" as="geometry"/>
                </mxCell>
                <mxCell id="143" value="klik på fluesvamp&lt;br&gt;(mousedown)" style="edgeLabel;html=1;align=center;verticalAlign=middle;resizable=0;points=[];fontSize=11;" parent="142" vertex="1" connectable="0">
                    <mxGeometry x="0.3382" relative="1" as="geometry">
                        <mxPoint y="24" as="offset"/>
                    </mxGeometry>
                </mxCell>
                <mxCell id="151" value="&lt;font style=&quot;font-size: 36px;&quot;&gt;Svampespil V8&lt;/font&gt;" style="text;strokeColor=none;align=left;fillColor=none;html=1;verticalAlign=middle;whiteSpace=wrap;rounded=0;" parent="1" vertex="1">
                    <mxGeometry x="40" y="40" width="280" height="60" as="geometry"/>
                </mxCell>
                <mxCell id="160" value="" style="edgeStyle=orthogonalEdgeStyle;rounded=0;orthogonalLoop=1;jettySize=auto;html=1;exitX=0.5;exitY=1;exitDx=0;exitDy=0;entryX=0;entryY=1;entryDx=0;entryDy=0;strokeColor=#FF0000;strokeWidth=2;" parent="1" source="156" target="57" edge="1">
                    <mxGeometry x="-0.0123" y="-45" relative="1" as="geometry">
                        <mxPoint x="232" y="620" as="sourcePoint"/>
                        <mxPoint x="90" y="530" as="targetPoint"/>
                        <mxPoint as="offset"/>
                        <Array as="points">
                            <mxPoint x="225" y="880"/>
                            <mxPoint x="80" y="880"/>
                            <mxPoint x="80" y="550"/>
                        </Array>
                    </mxGeometry>
                </mxCell>
                <mxCell id="161" value="klik på carljohan&lt;br style=&quot;border-color: var(--border-color);&quot;&gt;(mousedown)" style="edgeLabel;html=1;align=center;verticalAlign=middle;resizable=0;points=[];fontSize=11;" parent="160" vertex="1" connectable="0">
                    <mxGeometry x="-0.2654" relative="1" as="geometry">
                        <mxPoint x="70" y="10" as="offset"/>
                    </mxGeometry>
                </mxCell>
                <mxCell id="101" value="" style="ellipse;html=1;shape=endState;fillColor=#000000;strokeColor=#000000;" parent="1" vertex="1">
                    <mxGeometry x="1144" y="749" width="30" height="30" as="geometry"/>
                </mxCell>
                <mxCell id="171" style="edgeStyle=orthogonalEdgeStyle;html=1;exitX=0.5;exitY=0;exitDx=0;exitDy=0;entryX=0.5;entryY=1;entryDx=0;entryDy=0;labelBackgroundColor=#FFFFFF;startArrow=block;startFill=1;endArrow=none;endFill=0;rounded=0;" parent="1" source="92" target="90" edge="1">
                    <mxGeometry relative="1" as="geometry">
                        <Array as="points">
                            <mxPoint x="1400" y="560"/>
                            <mxPoint x="1285" y="560"/>
                        </Array>
                    </mxGeometry>
                </mxCell>
                <mxCell id="182" value="[ point &amp;lt;=10 ]" style="edgeLabel;html=1;align=center;verticalAlign=middle;resizable=0;points=[];" parent="171" vertex="1" connectable="0">
                    <mxGeometry x="0.0499" y="-1" relative="1" as="geometry">
                        <mxPoint as="offset"/>
                    </mxGeometry>
                </mxCell>
                <mxCell id="173" style="edgeStyle=none;html=1;exitX=0.25;exitY=1;exitDx=0;exitDy=0;entryX=0.5;entryY=0;entryDx=0;entryDy=0;labelBackgroundColor=#FFFFFF;startArrow=none;startFill=0;endArrow=block;endFill=1;" parent="1" source="134" target="101" edge="1">
                    <mxGeometry relative="1" as="geometry"/>
                </mxCell>
                <mxCell id="174" style="edgeStyle=none;html=1;exitX=0.25;exitY=1;exitDx=0;exitDy=0;labelBackgroundColor=#FFFFFF;startArrow=none;startFill=0;endArrow=block;endFill=1;" parent="1" source="137" target="102" edge="1">
                    <mxGeometry relative="1" as="geometry"/>
                </mxCell>
                <mxCell id="180" style="edgeStyle=orthogonalEdgeStyle;rounded=0;html=1;exitX=0.75;exitY=1;exitDx=0;exitDy=0;labelBackgroundColor=#FFFFFF;startArrow=none;startFill=0;endArrow=block;endFill=1;entryX=1;entryY=0.5;entryDx=0;entryDy=0;strokeColor=#000000;" parent="1" source="137" target="46" edge="1">
                    <mxGeometry relative="1" as="geometry">
                        <mxPoint x="1370" y="475" as="targetPoint"/>
                        <Array as="points">
                            <mxPoint x="1440" y="760"/>
                            <mxPoint x="1560" y="760"/>
                            <mxPoint x="1560" y="340"/>
                        </Array>
                    </mxGeometry>
                </mxCell>
                <mxCell id="181" value="Klik på spiligen_2&lt;br&gt;(click)" style="edgeLabel;html=1;align=center;verticalAlign=middle;resizable=0;points=[];fontColor=#000000;" parent="180" vertex="1" connectable="0">
                    <mxGeometry x="-0.9684" y="1" relative="1" as="geometry">
                        <mxPoint y="8" as="offset"/>
                    </mxGeometry>
                </mxCell>
                <mxCell id="183" style="edgeStyle=orthogonalEdgeStyle;html=1;exitX=0.5;exitY=1;exitDx=0;exitDy=0;entryX=1;entryY=0.5;entryDx=0;entryDy=0;strokeColor=#000000;rounded=0;" parent="1" source="163" target="118" edge="1">
                    <mxGeometry relative="1" as="geometry">
                        <Array as="points">
                            <mxPoint x="855" y="880"/>
                            <mxPoint x="1000" y="880"/>
                            <mxPoint x="1000" y="560"/>
                        </Array>
                    </mxGeometry>
                </mxCell>
                <mxCell id="185" value="klik på fluesvamp&lt;br style=&quot;border-color: var(--border-color);&quot;&gt;(mousedown)" style="edgeLabel;html=1;align=center;verticalAlign=middle;resizable=0;points=[];" parent="183" vertex="1" connectable="0">
                    <mxGeometry x="-0.5481" y="-1" relative="1" as="geometry">
                        <mxPoint as="offset"/>
                    </mxGeometry>
                </mxCell>
            </root>
        </mxGraphModel>
    </diagram>
</mxfile>